HIERARCHY
ROOT Hips
{
  OFFSET 263.056 91.6644 -274.608
  CHANNELS 6 Xposition Yposition Zposition Zrotation Xrotation Yrotation
  JOINT LeftUpLeg
  {
    OFFSET 8.64259 1.95398 -2.38835
    CHANNELS 3 Zrotation Xrotation Yrotation
    JOINT LeftLeg
    {
      OFFSET 43.7702 0 0
      CHANNELS 3 Zrotation Xrotation Yrotation
      JOINT LeftFoot
      {
        OFFSET 40.6238 0 0
        CHANNELS 3 Zrotation Xrotation Yrotation
        JOINT LeftToeBase
        {
          OFFSET 12.7242 0 0
          CHANNELS 3 Zrotation Xrotation Yrotation
          End Site
          {
            OFFSET 0 0 0
          }
        }
      }
    }
  }
  JOINT RightUpLeg
  {
    OFFSET -8.2249 1.95398 -2.59336
    CHANNELS 3 Zrotation Xrotation Yrotation
    JOINT RightLeg
    {
      OFFSET 43.5653 0 0
      CHANNELS 3 Zrotation Xrotation Yrotation
      JOINT RightFoot
      {
        OFFSET 40.6238 0 0
        CHANNELS 3 Zrotation Xrotation Yrotation
        JOINT RightToeBase
        {
          OFFSET 12.7242 0 0
          CHANNELS 3 Zrotation Xrotation Yrotation
          End Site
          {
            OFFSET 0 0 0
          }
        }
      }
    }
  }
  JOINT Spine
  {
    OFFSET 0.165834 0.87714 6.61349
    CHANNELS 3 Zrotation Xrotation Yrotation
    JOINT Spine1
    {
      OFFSET 7.38963 1.71661e-005 0
      CHANNELS 3 Zrotation Xrotation Yrotation
      JOINT Spine2
      {
        OFFSET 11.9445 1.14441e-005 0
        CHANNELS 3 Zrotation Xrotation Yrotation
        JOINT Spine3
        {
          OFFSET 14.7254 4.19617e-005 0
          CHANNELS 3 Zrotation Xrotation Yrotation
          JOINT Spine4
          {
            OFFSET 10.9679 0 0
            CHANNELS 3 Zrotation Xrotation Yrotation
            JOINT RightShoulder
            {
              OFFSET 2.46616 -1.6653 3.69651
              CHANNELS 3 Zrotation Xrotation Yrotation
              JOINT RightArm
              {
                OFFSET 13.0012 0 0
                CHANNELS 3 Zrotation Xrotation Yrotation
                JOINT RightForeArm
                {
                  OFFSET 28.7848 1.52588e-005 0
                  CHANNELS 3 Zrotation Xrotation Yrotation
                  JOINT RightHand
                  {
                    OFFSET 26.5688 1.52588e-005 0
                    CHANNELS 3 Zrotation Xrotation Yrotation
                    End Site
                    {
                      OFFSET 0 0 0
                    }
                  }
                }
              }
            }
            JOINT LeftShoulder
            {
              OFFSET 2.38034 -1.29275 -3.7523
              CHANNELS 3 Zrotation Xrotation Yrotation
              JOINT LeftArm
              {
                OFFSET 16.3182 6.10352e-005 0
                CHANNELS 3 Zrotation Xrotation Yrotation
                JOINT LeftForeArm
                {
                  OFFSET 27.0901 0 0
                  CHANNELS 3 Zrotation Xrotation Yrotation
                  JOINT LeftHand
                  {
                    OFFSET 24.5451 1.52588e-005 0
                    CHANNELS 3 Zrotation Xrotation Yrotation
                    End Site
                    {
                      OFFSET 0 0 0
                    }
                  }
                }
              }
            }
            JOINT Neck
            {
              OFFSET 5.0226 -0.0266342 0
              CHANNELS 3 Zrotation Xrotation Yrotation
              JOINT Head
              {
                OFFSET 6.69364 2.86102e-005 0
                CHANNELS 3 Zrotation Xrotation Yrotation
                End Site
                {
                  OFFSET 0 0 0
                }
              }
            }
          }
        }
      }
    }
  }
}
MOTION
Frames:	7
Frame Time:	0.0416667
-129.803 95.1322 -97.7941 94.3897 -39.7677 91.8361 -173.814 20.9089 88.5613 -23.5963 13.0087 -1.31348 55.6358 1.21487 9.85433 45.0661 17.9194 -0.413518 179.02 4.02425 93.8032 -29.3534 6.21351 -2.08704 73.6306 -4.56813 -2.25513 36.3694 0.508904 10.8842 0.464086 7.88046 -89.9224 11.113 0.95995 0.0612374 -0.557559 0.961695 0.0189221 -23.0953 0.897157 0.34693 -3.08263 0.897149 0.346937 76.4943 -52.9208 -119.751 9.41232 -9.65297 -0.00912973 -11.9871 -12.5065 -52.3854 -10.4165 -0.843431 4.02599 -105.172 -43.6369 53.664 -25.2712 0.972122 14.6642 5.11334 0.432725 -42.9449 12.3227 0.675392 1.5646 8.20715 -1.42097 4.00475 3.5216 -2.29646 -1.14496 
-133.325 96.0501 -100.6 94.5108 -39.252 90.9909 -173.005 17.7258 88.8759 -32.7102 10.8932 -1.33405 54.2176 -0.0594225 9.5458 49.265 20.8997 -6.26937 178.862 6.30045 92.6298 -27.8307 5.06255 -1.96611 69.8429 -2.81738 -1.47258 35.1977 0.321915 10.3267 0.349633 7.76575 -89.8007 11.3414 0.788694 0.317655 -0.329358 0.8019 0.282635 -22.8656 0.656765 0.540016 -2.85299 0.656756 0.540015 77.1182 -53.7187 -118.537 11.1561 -11.1097 4.26728 -11.9927 -12.499 -52.6789 -8.91084 -0.694205 3.24306 -104.897 -42.6605 53.5956 -24.796 1.104 14.0693 6.62578 1.76077 -46.426 11.3744 0.687213 2.08629 6.27269 -2.25353 1.73872 3.65047 -2.50405 0.603992 
-136.67 96.3555 -103.576 94.0834 -39.2956 90.2474 -172.148 13.5787 89.8203 -39.0403 9.21791 -1.2051 53.7568 -0.709127 8.24983 44.5949 17.212 -1.43033 178.718 9.24187 91.7713 -27.0105 5.11088 -1.58337 67.8925 -1.87502 -0.989337 31.8395 -0.199645 11.0224 0.186629 7.61237 -89.7597 11.6483 0.483991 0.429026 -0.0226267 0.50238 0.407302 -22.5576 0.332654 0.554647 -2.54496 0.332664 0.554641 77.4994 -53.917 -117.92 12.7579 -12.5278 7.60103 -12.4578 -12.8788 -52.103 -8.47621 -0.674979 3.26665 -104.182 -42.2195 54.4621 -24.3168 0.194781 13.822 9.4957 3.16482 -51.5563 9.1484 0.588496 2.32237 6.12856 -2.44745 1.44574 2.74215 -2.64119 0.628659 
-140.099 95.7041 -106.874 93.7482 -39.4109 90.3603 -171.892 8.57251 91.4582 -42.2935 9.25395 -0.566849 50.6601 -3.44524 7.71358 42.9421 14.6983 -6.62377 179.007 12.7009 91.9127 -27.4764 5.81733 -1.3708 68.509 -2.00385 -1.0542 28.3693 -0.842094 12.0788 -0.0401364 7.50949 -89.806 11.8546 0.0115581 0.385582 0.183618 0.0285083 0.384689 -22.3511 -0.104886 0.371232 -2.33846 -0.104881 0.37122 76.946 -54.4688 -118.471 12.9455 -12.463 10.8395 -11.5468 -11.5887 -51.2369 -7.62433 -0.580671 2.56555 -103.486 -41.8341 55.3372 -23.5011 -1.29687 13.9049 10.0162 1.95109 -56.8812 8.24364 0.602475 3.08024 6.88839 -2.07097 1.13038 1.56207 -2.21444 0.880105 
-143.797 94.497 -110.518 92.9877 -39.252 90.2722 -172.425 3.9812 92.4823 -42.9283 12.2738 0.2668 48.3441 -5.95345 5.20847 43.1923 15.7981 -1.01827 179.853 18.5057 92.3071 -30.9655 6.06079 -1.91345 67.9191 -2.06618 -1.10266 28.9978 -0.800222 13.2398 -0.305067 7.481 -89.8635 11.9127 -0.54225 0.330613 0.241831 -0.527164 0.354153 -22.2941 -0.616545 0.152355 -2.2815 -0.616545 0.152358 78.0632 -54.0916 -117.057 13.028 -12.0745 11.3261 -10.9078 -11.5695 -51.1589 -8.83929 -0.638687 2.50694 -103.02 -41.515 55.9011 -22.0729 -3.77868 12.7897 11.2656 1.69263 -60.9088 8.91086 0.724548 3.86702 8.46763 -1.77529 0.817374 0.749797 -1.87033 1.06748 
-147.866 92.9663 -114.686 93.4597 -39.0544 91.306 -173.56 -0.172873 92.7813 -43.3791 17.325 1.37556 49.2594 -5.32153 5.72997 48.5467 21.4303 -1.26445 -179.173 23.7314 92.8684 -33.941 6.73204 -2.33386 66.442 -2.13331 -1.16181 31.7759 -0.2858 12.9491 -0.565092 7.57756 -89.9531 11.72 -1.10185 0.209398 0.0494316 -1.09159 0.257698 -22.4893 -1.11384 -0.131478 -2.47663 -1.11387 -0.131477 78.1728 -54.5238 -116.732 12.1893 -10.8404 10.7638 -9.85854 -11.4824 -50.0819 -8.79086 -0.658012 2.90806 -103.285 -41.6233 55.5446 -19.7366 -5.8154 12.33 11.6306 1.27366 -63.6613 9.85202 0.787742 3.80836 8.70373 -1.55192 0.295989 0.993299 -1.52962 1.3294 
-152.062 91.7774 -118.968 93.4009 -37.3827 91.7016 -175.294 -2.6692 92.2277 -42.3028 22.3232 2.64894 51.7868 -3.39881 4.9264 53.2207 28.8443 5.79904 -178.359 27.7669 92.5376 -33.9863 6.2509 -2.69564 64.1177 -1.45544 -0.783669 34.3381 0.172877 9.57401 -0.847556 7.64598 -89.9909 11.5848 -1.68176 0.191523 -0.0851057 -1.67168 0.265376 -22.6289 -1.66153 -0.322916 -2.61629 -1.66154 -0.322913 77.9282 -55.5895 -116.657 11.5815 -8.03176 10.3808 -10.4733 -12.04 -48.732 -8.97353 -0.784136 4.58373 -104.101 -40.9517 53.9563 -17.9037 -6.94755 11.4246 12.2117 1.58761 -64.1719 10.7558 0.996255 5.05294 8.90045 -1.89626 -0.704914 1.29774 -1.64042 1.45787 
